<svg xmlns="http://www.w3.org/2000/svg" xmlns:xlink="http://www.w3.org/1999/xlink" width="566" zoomAndPan="magnify" viewBox="0 0 425.03998 107.999999" height="144" preserveAspectRatio="xMidYMid meet" version="1.0"><defs><g/><clipPath id="8df135aa8c"><path d="M 0 22.097656 L 35.542969 22.097656 L 35.542969 79.355469 L 0 79.355469 Z M 0 22.097656 " clip-rule="nonzero"/></clipPath><clipPath id="aafe3f4750"><path d="M 15.804688 28.382812 C 13.488281 28.382812 8.941406 29.710938 6.285156 30.738281 L 6.285156 55.722656 C 8.929688 56.71875 13.488281 58.039062 15.804688 58.039062 C 24.15625 58.039062 29.125 52.488281 29.125 43.230469 C 29.125 33.921875 24.164062 28.375 15.804688 28.375 M 15.804688 64.363281 C 12.910156 64.363281 8.980469 63.207031 6.285156 62.296875 L 6.285156 76.15625 C 6.285156 77.894531 4.878906 79.339844 3.144531 79.339844 C 1.40625 79.339844 0 77.894531 0 76.15625 L 0 25.820312 C 0 24.085938 1.40625 22.675781 3.144531 22.675781 C 4.339844 22.675781 5.378906 23.347656 5.917969 24.292969 C 8.5625 23.375 12.742188 22.097656 15.804688 22.097656 C 27.546875 22.097656 35.410156 30.578125 35.410156 43.230469 C 35.410156 55.851562 27.546875 64.363281 15.804688 64.363281 " clip-rule="nonzero"/></clipPath><clipPath id="515508ddcb"><path d="M 51.34375 22.097656 L 81.820312 22.097656 L 81.820312 64.316406 L 51.34375 64.316406 Z M 51.34375 22.097656 " clip-rule="nonzero"/></clipPath><clipPath id="aa6dea9ed7"><path d="M 75.707031 44.386719 L 64.292969 46.542969 C 58.496094 47.621094 57.300781 49.027344 57.300781 51.75 C 57.300781 55.722656 60.03125 58.328125 64.164062 58.328125 C 67.476562 58.328125 72.683594 56.222656 75.707031 54.8125 Z M 81.703125 60.691406 C 81.703125 62.347656 80.335938 63.664062 78.679688 63.664062 C 77.3125 63.664062 76.15625 62.757812 75.738281 61.308594 C 72.265625 62.714844 67.753906 64.28125 64.152344 64.28125 C 56.71875 64.28125 51.34375 58.996094 51.34375 51.75 C 51.34375 44.21875 56.96875 41.824219 63.214844 40.667969 L 75.707031 38.351562 L 75.707031 33.472656 C 75.707031 30.328125 71.40625 28.015625 67.855469 28.015625 C 65.042969 28.015625 58.335938 29.382812 55.980469 29.871094 C 54.414062 30.199219 52.800781 29.210938 52.429688 27.59375 C 52.101562 25.980469 53.089844 24.363281 54.703125 24.042969 C 58.746094 23.214844 63.792969 22.097656 67.84375 22.097656 C 74.550781 22.097656 81.703125 26.6875 81.703125 33.472656 Z M 81.703125 60.691406 " clip-rule="nonzero"/></clipPath><clipPath id="bedcc26570"><path d="M 109.4375 5 L 125.640625 5 L 125.640625 20.953125 L 109.4375 20.953125 Z M 109.4375 5 " clip-rule="nonzero"/></clipPath><clipPath id="dd13bfb23e"><path d="M 125.417969 12.992188 C 125.417969 17.34375 121.882812 20.875 117.535156 20.875 C 113.183594 20.875 109.652344 17.34375 109.652344 12.992188 C 109.652344 8.640625 113.183594 5.109375 117.542969 5.109375 C 121.90625 5.109375 125.425781 8.640625 125.425781 12.992188 " clip-rule="nonzero"/></clipPath><clipPath id="c6fedb8d60"><path d="M 114.296875 21 L 142.304688 21 L 142.304688 48.960938 L 114.296875 48.960938 Z M 114.296875 21 " clip-rule="nonzero"/></clipPath><clipPath id="726630191b"><path d="M 117.542969 48.851562 C 115.816406 48.851562 114.421875 47.453125 114.421875 45.726562 C 114.421875 39.742188 118.472656 33.777344 126.472656 27.988281 C 132.050781 23.949219 137.558594 21.472656 137.789062 21.363281 C 139.363281 20.664062 141.210938 21.363281 141.910156 22.941406 C 142.609375 24.515625 141.910156 26.363281 140.332031 27.0625 C 140.28125 27.082031 135.105469 29.425781 130.054688 33.097656 C 125.777344 36.210938 120.667969 40.929688 120.667969 45.726562 C 120.667969 47.453125 119.269531 48.851562 117.542969 48.851562 " clip-rule="nonzero"/></clipPath><clipPath id="fd4e68ef4f"><path d="M 92.773438 21 L 120.78125 21 L 120.78125 64.699219 L 92.773438 64.699219 Z M 92.773438 21 " clip-rule="nonzero"/></clipPath><clipPath id="b6b440d3ee"><path d="M 117.542969 64.546875 C 115.816406 64.546875 114.421875 63.148438 114.421875 61.421875 L 114.421875 45.726562 C 114.421875 40.929688 109.3125 36.210938 105.03125 33.097656 C 99.972656 29.414062 94.796875 27.082031 94.746094 27.0625 C 93.179688 26.351562 92.472656 24.507812 93.179688 22.941406 C 93.886719 21.375 95.722656 20.664062 97.300781 21.363281 C 97.53125 21.464844 103.039062 23.949219 108.613281 27.988281 C 116.617188 33.777344 120.667969 39.742188 120.667969 45.726562 L 120.667969 61.421875 C 120.667969 63.148438 119.269531 64.546875 117.542969 64.546875 " clip-rule="nonzero"/></clipPath><clipPath id="ecaa3ec32a"><path d="M 153.390625 22.097656 L 183.867188 22.097656 L 183.867188 64.316406 L 153.390625 64.316406 Z M 153.390625 22.097656 " clip-rule="nonzero"/></clipPath><clipPath id="2eefb07364"><path d="M 177.757812 44.386719 L 166.339844 46.542969 C 160.554688 47.621094 159.347656 49.027344 159.347656 51.75 C 159.347656 55.722656 162.082031 58.328125 166.210938 58.328125 C 169.523438 58.328125 174.734375 56.222656 177.757812 54.8125 Z M 183.753906 60.691406 C 183.753906 62.347656 182.386719 63.664062 180.738281 63.664062 C 179.371094 63.664062 178.214844 62.757812 177.796875 61.308594 C 174.324219 62.714844 169.8125 64.28125 166.210938 64.28125 C 158.769531 64.28125 153.390625 58.996094 153.390625 51.75 C 153.390625 44.21875 159.019531 41.824219 165.265625 40.667969 L 177.757812 38.351562 L 177.757812 33.472656 C 177.757812 30.328125 173.457031 28.015625 169.894531 28.015625 C 167.078125 28.015625 160.386719 29.382812 158.019531 29.871094 C 156.445312 30.199219 154.835938 29.210938 154.457031 27.59375 C 154.128906 25.980469 155.117188 24.363281 156.734375 24.042969 C 160.792969 23.214844 165.84375 22.097656 169.894531 22.097656 C 176.597656 22.097656 183.753906 26.6875 183.753906 33.472656 Z M 183.753906 60.691406 " clip-rule="nonzero"/></clipPath><clipPath id="d33f64f55f"><path d="M 202.578125 22.015625 L 233.898438 22.015625 L 233.898438 64.347656 L 202.578125 64.347656 Z M 202.578125 22.015625 " clip-rule="nonzero"/></clipPath><clipPath id="f698c42599"><path d="M 231.53125 62.921875 C 228.21875 63.789062 226.402344 64.289062 222.761719 64.289062 C 210.480469 64.289062 202.578125 55.148438 202.578125 43.148438 C 202.578125 31.144531 210.480469 22.015625 222.761719 22.015625 C 225.617188 22.015625 228.550781 22.472656 231.453125 23.34375 C 233.269531 23.921875 234.265625 25.617188 233.765625 27.3125 C 233.308594 28.96875 231.53125 29.957031 229.875 29.457031 C 227.5625 28.757812 225.195312 28.300781 222.761719 28.300781 C 213.992188 28.300781 208.902344 34.675781 208.902344 43.148438 C 208.902344 51.617188 213.992188 57.992188 222.761719 57.992188 C 225.40625 57.992188 227.519531 57.375 229.996094 56.796875 C 231.691406 56.386719 233.386719 57.414062 233.808594 59.109375 C 234.214844 60.765625 233.1875 62.503906 231.53125 62.921875 " clip-rule="nonzero"/></clipPath><clipPath id="79282ff32c"><path d="M 249.945312 22.015625 L 281.265625 22.015625 L 281.265625 64.347656 L 249.945312 64.347656 Z M 249.945312 22.015625 " clip-rule="nonzero"/></clipPath><clipPath id="0b30918db2"><path d="M 278.898438 62.921875 C 275.585938 63.789062 273.769531 64.289062 270.128906 64.289062 C 257.84375 64.289062 249.945312 55.148438 249.945312 43.148438 C 249.945312 31.144531 257.84375 22.015625 270.128906 22.015625 C 272.980469 22.015625 275.914062 22.472656 278.808594 23.34375 C 280.632812 23.921875 281.621094 25.617188 281.121094 27.3125 C 280.664062 28.96875 278.886719 29.957031 277.230469 29.457031 C 274.917969 28.757812 272.5625 28.300781 270.117188 28.300781 C 261.347656 28.300781 256.257812 34.675781 256.257812 43.148438 C 256.257812 51.617188 261.347656 57.992188 270.117188 57.992188 C 272.761719 57.992188 274.875 57.375 277.359375 56.796875 C 279.058594 56.386719 280.753906 57.414062 281.164062 59.109375 C 281.582031 60.765625 280.542969 62.503906 278.886719 62.921875 " clip-rule="nonzero"/></clipPath><clipPath id="f6afd18173"><path d="M 297.972656 22 L 326.378906 22 L 326.378906 64.320312 L 297.972656 64.320312 Z M 297.972656 22 " clip-rule="nonzero"/></clipPath><clipPath id="76c995893d"><path d="M 311.910156 64.285156 C 309.425781 64.285156 304.21875 63.824219 300.996094 63.007812 C 299.300781 62.546875 298.300781 60.851562 298.722656 59.207031 C 299.179688 57.507812 300.914062 56.472656 302.5625 56.929688 C 304.964844 57.550781 309.476562 58.007812 311.910156 58.007812 C 312.738281 58.007812 319.933594 57.839844 319.933594 52.671875 C 319.933594 49.648438 319.066406 48.867188 316.371094 47.949219 L 305.875 44.429688 C 302.191406 43.191406 297.972656 40.917969 297.972656 33.722656 C 297.972656 25.742188 305.414062 22.097656 312.371094 22.097656 C 315.015625 22.097656 320.191406 22.636719 323.085938 23.375 C 324.742188 23.796875 325.820312 25.53125 325.359375 27.21875 C 324.941406 28.875 323.207031 29.910156 321.507812 29.492188 C 319.195312 28.914062 314.566406 28.375 312.371094 28.375 C 311.542969 28.375 304.308594 28.542969 304.308594 33.710938 C 304.308594 36.734375 305.214844 37.515625 307.871094 38.433594 L 318.417969 41.992188 C 322.058594 43.230469 326.277344 45.507812 326.277344 52.660156 C 326.277344 60.683594 318.835938 64.285156 311.921875 64.285156 " clip-rule="nonzero"/></clipPath><clipPath id="5fe2b2e5d0"><path d="M 340.058594 22.578125 L 377.863281 22.578125 L 377.863281 79 L 340.058594 79 Z M 340.058594 22.578125 " clip-rule="nonzero"/></clipPath><clipPath id="5acfceffda"><path d="M 360.808594 67.261719 C 357.664062 74.835938 352 78.847656 343.476562 79.007812 C 341.703125 79.058594 340.292969 77.769531 340.203125 75.953125 C 340.125 74.21875 341.492188 72.769531 343.226562 72.679688 C 349.355469 72.472656 352.746094 70.195312 354.980469 64.820312 L 356.257812 61.757812 L 341.820312 27.183594 C 341.164062 25.566406 341.902344 23.710938 343.515625 23.042969 C 345.132812 22.375 346.988281 23.132812 347.65625 24.75 L 359.652344 53.535156 L 371.644531 24.660156 C 372.300781 23.042969 374.167969 22.304688 375.785156 22.964844 C 377.402344 23.621094 378.140625 25.488281 377.480469 27.105469 Z M 360.808594 67.261719 " clip-rule="nonzero"/></clipPath><clipPath id="ef8409b902"><path d="M 393.121094 22.097656 L 421.519531 22.097656 L 421.519531 64.316406 L 393.121094 64.316406 Z M 393.121094 22.097656 " clip-rule="nonzero"/></clipPath><clipPath id="4daac7768b"><path d="M 407.058594 64.285156 C 404.574219 64.285156 399.367188 63.824219 396.140625 63.007812 C 394.445312 62.546875 393.457031 60.851562 393.867188 59.207031 C 394.328125 57.507812 396.0625 56.472656 397.71875 56.929688 C 400.125 57.550781 404.625 58.007812 407.066406 58.007812 C 407.894531 58.007812 415.089844 57.839844 415.089844 52.671875 C 415.089844 49.648438 414.222656 48.867188 411.527344 47.949219 L 401.023438 44.429688 C 397.339844 43.191406 393.121094 40.917969 393.121094 33.722656 C 393.121094 25.742188 400.5625 22.097656 407.507812 22.097656 C 410.152344 22.097656 415.328125 22.636719 418.222656 23.375 C 419.878906 23.796875 420.957031 25.53125 420.496094 27.21875 C 420.078125 28.875 418.34375 29.910156 416.65625 29.492188 C 414.339844 28.914062 409.703125 28.375 407.507812 28.375 C 406.679688 28.375 399.445312 28.542969 399.445312 33.710938 C 399.445312 36.734375 400.351562 37.515625 403.007812 38.433594 L 413.554688 41.992188 C 417.195312 43.230469 421.414062 45.507812 421.414062 52.660156 C 421.414062 60.683594 413.972656 64.285156 407.058594 64.285156 " clip-rule="nonzero"/></clipPath></defs><g clip-path="url(#8df135aa8c)"><g clip-path="url(#aafe3f4750)"><path fill="#6e6f71" d="M 0 22.097656 L 35.40625 22.097656 L 35.40625 79.355469 L 0 79.355469 Z M 0 22.097656 " fill-opacity="1" fill-rule="nonzero"/></g></g><g clip-path="url(#515508ddcb)"><g clip-path="url(#aa6dea9ed7)"><path fill="#6e6f71" d="M 51.34375 22.097656 L 81.703125 22.097656 L 81.703125 64.316406 L 51.34375 64.316406 Z M 51.34375 22.097656 " fill-opacity="1" fill-rule="nonzero"/></g></g><g clip-path="url(#bedcc26570)"><g clip-path="url(#dd13bfb23e)"><path fill="#ffffff" d="M 87.910156 0.121094 L 147.167969 0.121094 L 147.167969 69.5625 L 87.910156 69.5625 Z M 87.910156 0.121094 " fill-opacity="1" fill-rule="nonzero"/></g></g><g clip-path="url(#c6fedb8d60)"><g clip-path="url(#726630191b)"><path fill="#6e6f71" d="M 87.910156 0.121094 L 147.167969 0.121094 L 147.167969 69.5625 L 87.910156 69.5625 Z M 87.910156 0.121094 " fill-opacity="1" fill-rule="nonzero"/></g></g><g clip-path="url(#fd4e68ef4f)"><g clip-path="url(#b6b440d3ee)"><path fill="#6e6f71" d="M 87.910156 0.121094 L 147.167969 0.121094 L 147.167969 69.5625 L 87.910156 69.5625 Z M 87.910156 0.121094 " fill-opacity="1" fill-rule="nonzero"/></g></g><g clip-path="url(#ecaa3ec32a)"><g clip-path="url(#2eefb07364)"><path fill="#6e6f71" d="M 153.390625 22.097656 L 183.75 22.097656 L 183.75 64.316406 L 153.390625 64.316406 Z M 153.390625 22.097656 " fill-opacity="1" fill-rule="nonzero"/></g></g><g clip-path="url(#d33f64f55f)"><g clip-path="url(#f698c42599)"><path fill="#6e6f71" d="M 202.578125 22.015625 L 233.898438 22.015625 L 233.898438 64.226562 L 202.578125 64.226562 Z M 202.578125 22.015625 " fill-opacity="1" fill-rule="nonzero"/></g></g><g clip-path="url(#79282ff32c)"><g clip-path="url(#0b30918db2)"><path fill="#6e6f71" d="M 249.945312 22.015625 L 281.265625 22.015625 L 281.265625 64.347656 L 249.945312 64.347656 Z M 249.945312 22.015625 " fill-opacity="1" fill-rule="nonzero"/></g></g><g clip-path="url(#f6afd18173)"><g clip-path="url(#76c995893d)"><path fill="#6e6f71" d="M 297.972656 22.097656 L 326.265625 22.097656 L 326.265625 64.320312 L 297.972656 64.320312 Z M 297.972656 22.097656 " fill-opacity="1" fill-rule="nonzero"/></g></g><g clip-path="url(#5fe2b2e5d0)"><g clip-path="url(#5acfceffda)"><path fill="#6e6f71" d="M 340.203125 22.722656 L 377.71875 22.722656 L 377.71875 78.992188 L 340.203125 78.992188 Z M 340.203125 22.722656 " fill-opacity="1" fill-rule="nonzero"/></g></g><g clip-path="url(#ef8409b902)"><g clip-path="url(#4daac7768b)"><path fill="#6e6f71" d="M 393.121094 22.097656 L 421.410156 22.097656 L 421.410156 64.316406 L 393.121094 64.316406 Z M 393.121094 22.097656 " fill-opacity="1" fill-rule="nonzero"/></g></g><g fill="#6e6f71" fill-opacity="1"><g transform="translate(158.470808, 90.478641)"><g><path d="M 7.8125 5.46875 C 7.78125 5.75 7.648438 5.976562 7.421875 6.15625 C 7.203125 6.34375 6.953125 6.425781 6.671875 6.40625 L 3.453125 6.09375 C 3.171875 6.0625 2.941406 5.945312 2.765625 5.75 C 2.597656 5.5625 2.515625 5.332031 2.515625 5.0625 L 2.515625 -19.640625 C 2.515625 -19.910156 2.597656 -20.140625 2.765625 -20.328125 C 2.941406 -20.523438 3.171875 -20.640625 3.453125 -20.671875 L 6.671875 -20.984375 C 6.953125 -21.015625 7.203125 -20.9375 7.421875 -20.75 C 7.648438 -20.5625 7.78125 -20.328125 7.8125 -20.046875 C 7.84375 -19.753906 7.765625 -19.492188 7.578125 -19.265625 C 7.398438 -19.046875 7.164062 -18.925781 6.875 -18.90625 L 4.59375 -18.703125 L 4.59375 4.125 L 6.875 4.328125 C 7.164062 4.347656 7.398438 4.46875 7.578125 4.6875 C 7.765625 4.914062 7.84375 5.175781 7.8125 5.46875 Z M 7.8125 5.46875 "/></g></g></g><g fill="#ffffff" fill-opacity="1"><g transform="translate(167.27514, 90.478641)"><g><path d="M 14.96875 -6.25 C 14.96875 -5.144531 14.800781 -4.132812 14.46875 -3.21875 C 14.144531 -2.300781 13.675781 -1.507812 13.0625 -0.84375 C 12.457031 -0.1875 11.726562 0.316406 10.875 0.671875 C 10.03125 1.035156 9.085938 1.21875 8.046875 1.21875 C 7.703125 1.21875 7.332031 1.175781 6.9375 1.09375 C 6.539062 1.019531 6.144531 0.925781 5.75 0.8125 C 5.363281 0.695312 5.007812 0.585938 4.6875 0.484375 L 4.6875 5.375 C 4.6875 5.675781 4.578125 5.9375 4.359375 6.15625 C 4.148438 6.382812 3.890625 6.5 3.578125 6.5 C 3.273438 6.5 3.015625 6.382812 2.796875 6.15625 C 2.578125 5.9375 2.46875 5.675781 2.46875 5.375 L 2.46875 -12.40625 C 2.46875 -12.71875 2.578125 -12.976562 2.796875 -13.1875 C 3.015625 -13.40625 3.273438 -13.515625 3.578125 -13.515625 C 3.796875 -13.515625 3.988281 -13.457031 4.15625 -13.34375 C 4.320312 -13.238281 4.457031 -13.101562 4.5625 -12.9375 C 4.875 -13.050781 5.226562 -13.164062 5.625 -13.28125 C 6.03125 -13.40625 6.445312 -13.507812 6.875 -13.59375 C 7.300781 -13.675781 7.691406 -13.71875 8.046875 -13.71875 C 9.085938 -13.71875 10.03125 -13.539062 10.875 -13.1875 C 11.726562 -12.832031 12.457031 -12.328125 13.0625 -11.671875 C 13.675781 -11.015625 14.144531 -10.226562 14.46875 -9.3125 C 14.800781 -8.394531 14.96875 -7.375 14.96875 -6.25 Z M 12.75 -6.25 C 12.75 -7.351562 12.5625 -8.289062 12.1875 -9.0625 C 11.8125 -9.84375 11.273438 -10.441406 10.578125 -10.859375 C 9.878906 -11.285156 9.035156 -11.5 8.046875 -11.5 C 7.773438 -11.5 7.429688 -11.453125 7.015625 -11.359375 C 6.609375 -11.273438 6.195312 -11.171875 5.78125 -11.046875 C 5.363281 -10.921875 5 -10.796875 4.6875 -10.671875 L 4.6875 -1.84375 C 5 -1.726562 5.363281 -1.601562 5.78125 -1.46875 C 6.195312 -1.34375 6.609375 -1.234375 7.015625 -1.140625 C 7.429688 -1.054688 7.773438 -1.015625 8.046875 -1.015625 C 9.035156 -1.015625 9.878906 -1.222656 10.578125 -1.640625 C 11.273438 -2.066406 11.8125 -2.664062 12.1875 -3.4375 C 12.5625 -4.21875 12.75 -5.15625 12.75 -6.25 Z M 12.75 -6.25 "/></g></g></g><g fill="#ffffff" fill-opacity="1"><g transform="translate(183.871778, 90.478641)"><g><path d="M 12.3125 -9.703125 L 12.3125 -0.09375 C 12.3125 0.195312 12.207031 0.445312 12 0.65625 C 11.789062 0.863281 11.539062 0.96875 11.25 0.96875 C 11.007812 0.96875 10.796875 0.890625 10.609375 0.734375 C 10.421875 0.585938 10.289062 0.382812 10.21875 0.125 C 9.800781 0.289062 9.359375 0.453125 8.890625 0.609375 C 8.421875 0.773438 7.945312 0.910156 7.46875 1.015625 C 7 1.128906 6.550781 1.1875 6.125 1.1875 C 5.25 1.1875 4.46875 0.992188 3.78125 0.609375 C 3.101562 0.222656 2.566406 -0.300781 2.171875 -0.96875 C 1.785156 -1.632812 1.59375 -2.394531 1.59375 -3.25 C 1.59375 -3.90625 1.707031 -4.460938 1.9375 -4.921875 C 2.164062 -5.378906 2.472656 -5.753906 2.859375 -6.046875 C 3.253906 -6.335938 3.703125 -6.570312 4.203125 -6.75 C 4.703125 -6.925781 5.226562 -7.0625 5.78125 -7.15625 L 10.203125 -7.984375 L 10.203125 -9.703125 C 10.203125 -10.066406 10.054688 -10.394531 9.765625 -10.6875 C 9.484375 -10.988281 9.125 -11.21875 8.6875 -11.375 C 8.257812 -11.539062 7.835938 -11.625 7.421875 -11.625 C 7.179688 -11.625 6.867188 -11.597656 6.484375 -11.546875 C 6.097656 -11.503906 5.691406 -11.441406 5.265625 -11.359375 C 4.835938 -11.285156 4.441406 -11.210938 4.078125 -11.140625 C 3.710938 -11.078125 3.429688 -11.019531 3.234375 -10.96875 C 2.953125 -10.914062 2.6875 -10.96875 2.4375 -11.125 C 2.195312 -11.28125 2.039062 -11.5 1.96875 -11.78125 C 1.914062 -12.0625 1.96875 -12.320312 2.125 -12.5625 C 2.28125 -12.8125 2.5 -12.96875 2.78125 -13.03125 C 3.25 -13.125 3.75 -13.222656 4.28125 -13.328125 C 4.820312 -13.441406 5.359375 -13.535156 5.890625 -13.609375 C 6.429688 -13.679688 6.941406 -13.71875 7.421875 -13.71875 C 8.015625 -13.71875 8.597656 -13.617188 9.171875 -13.421875 C 9.753906 -13.234375 10.28125 -12.960938 10.75 -12.609375 C 11.226562 -12.253906 11.609375 -11.832031 11.890625 -11.34375 C 12.171875 -10.851562 12.3125 -10.304688 12.3125 -9.703125 Z M 10.203125 -2.15625 L 10.203125 -5.84375 L 6.171875 -5.078125 C 5.484375 -4.953125 4.960938 -4.804688 4.609375 -4.640625 C 4.253906 -4.484375 4.015625 -4.289062 3.890625 -4.0625 C 3.765625 -3.832031 3.703125 -3.5625 3.703125 -3.25 C 3.703125 -2.539062 3.921875 -1.972656 4.359375 -1.546875 C 4.804688 -1.128906 5.394531 -0.921875 6.125 -0.921875 C 6.507812 -0.921875 6.953125 -0.988281 7.453125 -1.125 C 7.953125 -1.257812 8.445312 -1.421875 8.9375 -1.609375 C 9.425781 -1.804688 9.847656 -1.988281 10.203125 -2.15625 Z M 10.203125 -2.15625 "/></g></g></g><g fill="#ffffff" fill-opacity="1"><g transform="translate(198.539933, 90.478641)"><g><path d="M 13.515625 -11.953125 L 7.625 2.234375 C 7.070312 3.566406 6.289062 4.582031 5.28125 5.28125 C 4.269531 5.988281 3.007812 6.359375 1.5 6.390625 C 1.1875 6.398438 0.921875 6.300781 0.703125 6.09375 C 0.484375 5.882812 0.363281 5.617188 0.34375 5.296875 C 0.34375 4.992188 0.445312 4.726562 0.65625 4.5 C 0.863281 4.269531 1.117188 4.15625 1.421875 4.15625 C 2.492188 4.113281 3.351562 3.875 4 3.4375 C 4.65625 3.007812 5.175781 2.320312 5.5625 1.375 L 6.015625 0.296875 L 0.921875 -11.921875 C 0.804688 -12.203125 0.804688 -12.484375 0.921875 -12.765625 C 1.035156 -13.054688 1.234375 -13.265625 1.515625 -13.390625 C 1.796875 -13.503906 2.082031 -13.5 2.375 -13.375 C 2.664062 -13.257812 2.867188 -13.0625 2.984375 -12.78125 L 7.21875 -2.609375 L 11.453125 -12.8125 C 11.566406 -13.09375 11.765625 -13.289062 12.046875 -13.40625 C 12.335938 -13.53125 12.628906 -13.53125 12.921875 -13.40625 C 13.203125 -13.289062 13.398438 -13.085938 13.515625 -12.796875 C 13.628906 -12.515625 13.628906 -12.234375 13.515625 -11.953125 Z M 13.515625 -11.953125 "/></g></g></g><g fill="#ffffff" fill-opacity="1"><g transform="translate(212.974333, 90.478641)"><g><path d="M 10.765625 -11.59375 C 10.609375 -11.320312 10.378906 -11.148438 10.078125 -11.078125 C 9.785156 -11.003906 9.503906 -11.046875 9.234375 -11.203125 C 9.234375 -11.203125 9.117188 -11.25 8.890625 -11.34375 C 8.660156 -11.445312 8.378906 -11.5 8.046875 -11.5 C 7.804688 -11.5 7.488281 -11.445312 7.09375 -11.34375 C 6.707031 -11.25 6.296875 -11.125 5.859375 -10.96875 C 5.429688 -10.820312 5.035156 -10.664062 4.671875 -10.5 L 4.671875 -0.140625 C 4.671875 0.160156 4.5625 0.421875 4.34375 0.640625 C 4.132812 0.859375 3.875 0.96875 3.5625 0.96875 C 3.257812 0.96875 3 0.859375 2.78125 0.640625 C 2.5625 0.421875 2.453125 0.160156 2.453125 -0.140625 L 2.453125 -12.390625 C 2.453125 -12.703125 2.5625 -12.960938 2.78125 -13.171875 C 3 -13.390625 3.257812 -13.5 3.5625 -13.5 C 3.789062 -13.5 4 -13.4375 4.1875 -13.3125 C 4.375 -13.1875 4.507812 -13.019531 4.59375 -12.8125 C 4.925781 -12.957031 5.296875 -13.097656 5.703125 -13.234375 C 6.117188 -13.367188 6.53125 -13.484375 6.9375 -13.578125 C 7.34375 -13.671875 7.710938 -13.71875 8.046875 -13.71875 C 8.460938 -13.71875 8.835938 -13.671875 9.171875 -13.578125 C 9.515625 -13.484375 9.789062 -13.390625 10 -13.296875 C 10.21875 -13.203125 10.34375 -13.144531 10.375 -13.125 C 10.632812 -12.96875 10.800781 -12.738281 10.875 -12.4375 C 10.957031 -12.144531 10.921875 -11.863281 10.765625 -11.59375 Z M 10.765625 -11.59375 "/></g></g></g><g fill="#ffffff" fill-opacity="1"><g transform="translate(224.545228, 90.478641)"><g><path d="M 15.8125 -6.328125 C 15.8125 -5.253906 15.628906 -4.257812 15.265625 -3.34375 C 14.910156 -2.4375 14.410156 -1.640625 13.765625 -0.953125 C 13.117188 -0.273438 12.363281 0.25 11.5 0.625 C 10.644531 1 9.707031 1.1875 8.6875 1.1875 C 7.675781 1.1875 6.738281 1 5.875 0.625 C 5.019531 0.257812 4.269531 -0.253906 3.625 -0.921875 C 2.976562 -1.597656 2.476562 -2.382812 2.125 -3.28125 C 1.769531 -4.1875 1.59375 -5.164062 1.59375 -6.21875 C 1.59375 -7.289062 1.769531 -8.28125 2.125 -9.1875 C 2.476562 -10.101562 2.976562 -10.898438 3.625 -11.578125 C 4.269531 -12.265625 5.019531 -12.796875 5.875 -13.171875 C 6.738281 -13.546875 7.675781 -13.734375 8.6875 -13.734375 C 9.707031 -13.734375 10.644531 -13.546875 11.5 -13.171875 C 12.363281 -12.804688 13.117188 -12.285156 13.765625 -11.609375 C 14.410156 -10.941406 14.910156 -10.15625 15.265625 -9.25 C 15.628906 -8.351562 15.8125 -7.378906 15.8125 -6.328125 Z M 13.578125 -6.328125 C 13.578125 -7.078125 13.453125 -7.765625 13.203125 -8.390625 C 12.960938 -9.023438 12.625 -9.570312 12.1875 -10.03125 C 11.75 -10.5 11.234375 -10.859375 10.640625 -11.109375 C 10.046875 -11.367188 9.394531 -11.5 8.6875 -11.5 C 7.988281 -11.5 7.34375 -11.363281 6.75 -11.09375 C 6.15625 -10.832031 5.640625 -10.46875 5.203125 -10 C 4.765625 -9.53125 4.421875 -8.972656 4.171875 -8.328125 C 3.929688 -7.679688 3.8125 -6.976562 3.8125 -6.21875 C 3.8125 -5.46875 3.929688 -4.78125 4.171875 -4.15625 C 4.421875 -3.53125 4.765625 -2.984375 5.203125 -2.515625 C 5.640625 -2.046875 6.15625 -1.679688 6.75 -1.421875 C 7.34375 -1.171875 7.988281 -1.046875 8.6875 -1.046875 C 9.394531 -1.046875 10.046875 -1.175781 10.640625 -1.4375 C 11.234375 -1.707031 11.75 -2.078125 12.1875 -2.546875 C 12.625 -3.023438 12.960938 -3.582031 13.203125 -4.21875 C 13.453125 -4.863281 13.578125 -5.566406 13.578125 -6.328125 Z M 13.578125 -6.328125 "/></g></g></g><g fill="#ffffff" fill-opacity="1"><g transform="translate(241.945407, 90.478641)"><g><path d="M 4.828125 -18.140625 L 4.828125 -0.140625 C 4.828125 0.160156 4.71875 0.421875 4.5 0.640625 C 4.28125 0.859375 4.019531 0.96875 3.71875 0.96875 C 3.414062 0.96875 3.148438 0.859375 2.921875 0.640625 C 2.703125 0.421875 2.59375 0.160156 2.59375 -0.140625 L 2.59375 -18.140625 C 2.59375 -18.453125 2.703125 -18.710938 2.921875 -18.921875 C 3.148438 -19.140625 3.414062 -19.25 3.71875 -19.25 C 4.019531 -19.25 4.28125 -19.140625 4.5 -18.921875 C 4.71875 -18.710938 4.828125 -18.453125 4.828125 -18.140625 Z M 4.828125 -18.140625 "/></g></g></g><g fill="#ffffff" fill-opacity="1"><g transform="translate(249.367143, 90.478641)"><g><path d="M 4.828125 -18.140625 L 4.828125 -0.140625 C 4.828125 0.160156 4.71875 0.421875 4.5 0.640625 C 4.28125 0.859375 4.019531 0.96875 3.71875 0.96875 C 3.414062 0.96875 3.148438 0.859375 2.921875 0.640625 C 2.703125 0.421875 2.59375 0.160156 2.59375 -0.140625 L 2.59375 -18.140625 C 2.59375 -18.453125 2.703125 -18.710938 2.921875 -18.921875 C 3.148438 -19.140625 3.414062 -19.25 3.71875 -19.25 C 4.019531 -19.25 4.28125 -19.140625 4.5 -18.921875 C 4.71875 -18.710938 4.828125 -18.453125 4.828125 -18.140625 Z M 4.828125 -18.140625 "/></g></g></g><g fill="#6e6f71" fill-opacity="1"><g transform="translate(256.791699, 90.478641)"><g><path d="M 6.265625 -19.640625 L 6.265625 5.0625 C 6.265625 5.332031 6.175781 5.566406 6 5.765625 C 5.820312 5.960938 5.597656 6.070312 5.328125 6.09375 L 2.109375 6.40625 C 1.828125 6.425781 1.570312 6.34375 1.34375 6.15625 C 1.125 5.976562 1 5.75 0.96875 5.46875 C 0.9375 5.175781 1.007812 4.914062 1.1875 4.6875 C 1.375 4.46875 1.613281 4.347656 1.90625 4.328125 L 4.1875 4.125 L 4.1875 -18.703125 L 1.90625 -18.90625 C 1.613281 -18.925781 1.375 -19.046875 1.1875 -19.265625 C 1.007812 -19.492188 0.9375 -19.753906 0.96875 -20.046875 C 1 -20.328125 1.125 -20.5625 1.34375 -20.75 C 1.570312 -20.9375 1.828125 -21.015625 2.109375 -20.984375 L 5.328125 -20.671875 C 5.597656 -20.648438 5.820312 -20.539062 6 -20.34375 C 6.175781 -20.144531 6.265625 -19.910156 6.265625 -19.640625 Z M 6.265625 -19.640625 "/></g></g></g></svg>