<?xml version="1.0" encoding="UTF-8"?>
<svg id="Layer_1" data-name="Layer 1" xmlns="http://www.w3.org/2000/svg" viewBox="0 0 425.2 107.72">
  <defs>
    <style>
      .cls-1 {
        fill: #6e6f71;
      }

      .cls-1, .cls-2 {
        stroke-width: 0px;
      }

      .cls-2 {
        fill: #f04f46;
      }
    </style>
  </defs>
  <g>
    <g>
      <path class="cls-2" d="m127.48,9.45c0,4.36-3.53,7.9-7.9,7.9s-7.9-3.54-7.9-7.9,3.54-7.9,7.9-7.9,7.9,3.54,7.9,7.9Z"/>
      <g>
        <path class="cls-1" d="m119.59,45.39c-1.73,0-3.13-1.4-3.13-3.13,0-6,4.06-11.98,12.08-17.78,5.59-4.05,11.11-6.53,11.34-6.64,1.58-.7,3.43,0,4.13,1.58.71,1.58,0,3.43-1.58,4.13-.05.02-5.23,2.37-10.3,6.05-4.29,3.12-9.41,7.85-9.41,12.66,0,1.73-1.4,3.13-3.13,3.13Z"/>
        <path class="cls-1" d="m119.59,61.11c-1.73,0-3.13-1.4-3.13-3.13v-15.73c0-4.81-5.12-9.54-9.41-12.66-5.07-3.69-10.26-6.03-10.31-6.05-1.57-.71-2.28-2.56-1.57-4.13.71-1.58,2.55-2.28,4.13-1.58.23.1,5.75,2.59,11.34,6.64,8.02,5.8,12.08,11.78,12.08,17.78v15.73c0,1.73-1.4,3.13-3.13,3.13Z"/>
      </g>
    </g>
    <g>
      <path class="cls-1" d="m17.62,60.94c-2.9,0-6.84-1.16-9.54-2.07v13.89c0,1.74-1.41,3.19-3.15,3.19s-3.15-1.45-3.15-3.19V22.31c0-1.74,1.41-3.15,3.15-3.15,1.2,0,2.24.67,2.78,1.62,2.65-.91,6.84-2.2,9.91-2.2,11.77,0,19.65,8.5,19.65,21.18s-7.88,21.18-19.65,21.18Zm0-36.07c-2.32,0-6.88,1.33-9.54,2.36v25.04c2.66,1,7.22,2.32,9.54,2.32,8.37,0,13.35-5.56,13.35-14.84s-4.97-14.89-13.35-14.89Z"/>
      <path class="cls-1" d="m83.67,57.25c0,1.66-1.37,2.98-3.03,2.98-1.37,0-2.53-.91-2.95-2.36-3.48,1.41-8,2.98-11.61,2.98-7.46,0-12.85-5.31-12.85-12.56s5.64-9.95,11.9-11.11l12.52-2.32v-4.89c0-3.15-4.31-5.47-7.87-5.47-2.82,0-9.54,1.37-11.9,1.86-1.58.33-3.19-.66-3.57-2.28-.33-1.62.66-3.24,2.28-3.56,4.06-.83,9.12-1.95,13.18-1.95,6.72,0,13.89,4.6,13.89,11.4v27.28Zm-6.01-16.34l-11.44,2.16c-5.81,1.08-7.01,2.48-7.01,5.22,0,3.98,2.74,6.59,6.88,6.59,3.32,0,8.54-2.12,11.57-3.53v-10.45Z"/>
      <path class="cls-1" d="m185.94,57.25c0,1.66-1.37,2.98-3.03,2.98-1.37,0-2.53-.91-2.94-2.36-3.48,1.41-8,2.98-11.61,2.98-7.46,0-12.85-5.31-12.85-12.56s5.64-9.95,11.9-11.11l12.52-2.32v-4.89c0-3.15-4.31-5.47-7.88-5.47-2.82,0-9.53,1.37-11.9,1.86-1.58.33-3.19-.66-3.57-2.28-.33-1.62.67-3.24,2.28-3.56,4.06-.83,9.12-1.95,13.18-1.95,6.72,0,13.89,4.6,13.89,11.4v27.28Zm-6.01-16.34l-11.44,2.16c-5.81,1.08-7,2.48-7,5.22,0,3.98,2.73,6.59,6.88,6.59,3.32,0,8.54-2.12,11.57-3.53v-10.45Z"/>
      <path class="cls-1" d="m233.84,59.49c-3.32.87-5.14,1.37-8.79,1.37-12.31,0-20.23-9.16-20.23-21.18s7.92-21.18,20.23-21.18c2.86,0,5.8.46,8.71,1.33,1.82.58,2.82,2.28,2.32,3.98-.46,1.66-2.24,2.65-3.89,2.16-2.32-.7-4.69-1.16-7.13-1.16-8.79,0-13.89,6.39-13.89,14.88s5.1,14.88,13.89,14.88c2.65,0,4.77-.62,7.25-1.2,1.7-.41,3.4.62,3.82,2.32.41,1.66-.62,3.4-2.28,3.82Z"/>
      <path class="cls-1" d="m281.31,59.49c-3.32.87-5.14,1.37-8.79,1.37-12.31,0-20.23-9.16-20.23-21.18s7.92-21.18,20.23-21.18c2.86,0,5.81.46,8.71,1.33,1.83.58,2.82,2.28,2.32,3.98-.46,1.66-2.24,2.65-3.9,2.16-2.32-.7-4.68-1.16-7.13-1.16-8.79,0-13.89,6.39-13.89,14.88s5.1,14.88,13.89,14.88c2.65,0,4.77-.62,7.26-1.2,1.7-.41,3.4.62,3.81,2.32.41,1.66-.62,3.4-2.28,3.82Z"/>
      <path class="cls-1" d="m314.4,60.86c-2.49,0-7.71-.46-10.94-1.28-1.7-.46-2.7-2.16-2.28-3.81.46-1.7,2.2-2.74,3.85-2.28,2.41.62,6.93,1.08,9.37,1.08.83,0,8.04-.17,8.04-5.35,0-3.03-.87-3.81-3.57-4.73l-10.53-3.52c-3.69-1.24-7.92-3.52-7.92-10.74,0-8,7.46-11.65,14.43-11.65,2.65,0,7.84.54,10.74,1.28,1.66.41,2.74,2.16,2.28,3.85-.41,1.66-2.16,2.7-3.86,2.28-2.32-.58-6.96-1.12-9.16-1.12-.83,0-8.08.17-8.08,5.35,0,3.03.91,3.81,3.56,4.73l10.57,3.57c3.65,1.24,7.88,3.52,7.88,10.69,0,8.04-7.46,11.65-14.39,11.65Z"/>
      <path class="cls-1" d="m363.4,63.84c-3.15,7.59-8.83,11.61-17.37,11.77-1.78.04-3.19-1.24-3.28-3.07-.08-1.74,1.29-3.19,3.03-3.28,6.14-.21,9.53-2.49,11.78-7.88l1.28-3.07-14.47-34.66c-.67-1.62.08-3.48,1.7-4.15,1.62-.66,3.48.08,4.15,1.7l12.02,28.85,12.02-28.94c.66-1.62,2.53-2.36,4.15-1.7,1.62.67,2.36,2.53,1.7,4.15l-16.71,40.25Z"/>
      <path class="cls-1" d="m409.76,60.86c-2.49,0-7.71-.46-10.94-1.28-1.7-.46-2.69-2.16-2.28-3.81.46-1.7,2.2-2.74,3.86-2.28,2.41.62,6.92,1.08,9.37,1.08.83,0,8.04-.17,8.04-5.35,0-3.03-.87-3.81-3.56-4.73l-10.53-3.52c-3.69-1.24-7.92-3.52-7.92-10.74,0-8,7.46-11.65,14.42-11.65,2.66,0,7.84.54,10.74,1.28,1.66.41,2.74,2.16,2.28,3.85-.42,1.66-2.16,2.7-3.85,2.28-2.32-.58-6.97-1.12-9.16-1.12-.83,0-8.08.17-8.08,5.35,0,3.03.91,3.81,3.57,4.73l10.57,3.57c3.65,1.24,7.88,3.52,7.88,10.69,0,8.04-7.46,11.65-14.39,11.65Z"/>
    </g>
  </g>
  <g>
    <path class="cls-2" d="m120.53,76.72c.38-.03.73-.21.97-.5.25-.3.37-.69.33-1.08-.04-.38-.23-.73-.53-.98-.3-.25-.67-.36-1.05-.32l-3.74.36c-.75.08-1.3.69-1.3,1.44v28.61c0,.75.55,1.36,1.3,1.44l3.74.36s.1,0,.15,0c.32,0,.64-.11.9-.33.31-.25.5-.6.53-.98.04-.4-.08-.78-.33-1.08-.25-.29-.59-.47-.97-.5l-2.44-.22v-26l2.44-.22Z"/>
    <path class="cls-2" d="m130.51,82.5c-.84,0-1.53.68-1.53,1.53v14.18c0,.84.68,1.53,1.53,1.53s1.53-.69,1.53-1.53v-14.18c0-.84-.69-1.53-1.53-1.53Z"/>
    <path class="cls-2" d="m129.44,73.93l-.64.74c-.31.36-.47.82-.43,1.3.04.48.27.94.64,1.26.35.29.76.44,1.18.44.51,0,1.01-.21,1.37-.63l.64-.74c.65-.75.56-1.9-.21-2.58-.76-.65-1.91-.55-2.56.21Z"/>
    <path class="cls-2" d="m148.85,82.24c-2.06,0-3.79.78-4.96,1.52-.12-.72-.75-1.27-1.5-1.27-.84,0-1.53.68-1.53,1.53v14.18c0,.84.68,1.53,1.53,1.53s1.53-.69,1.53-1.53v-10.75c.5-.49,2.38-2.16,4.94-2.16s3.47,1.1,3.47,3.79v9.12c0,.84.69,1.53,1.53,1.53s1.53-.69,1.53-1.53v-9.12c0-4.41-2.32-6.84-6.52-6.84Z"/>
    <path class="cls-2" d="m174.01,96.64c-.37-.16-.79-.17-1.16-.03-.09.03-.93.32-1.53.32-1.97,0-3.04-.59-3.04-3.7v-7.66h3.67c.84,0,1.53-.69,1.53-1.53s-.68-1.53-1.53-1.53h-3.67v-3.99c0-.85-.69-1.54-1.53-1.54s-1.53.69-1.53,1.54v3.99h-1.87c-.84,0-1.53.68-1.53,1.53s.69,1.53,1.53,1.53h1.87v7.66c0,4.5,2.05,6.77,6.1,6.77,1.08,0,2.18-.37,2.61-.53l-.07-.23h0l.08.23h0c.38-.15.68-.44.85-.81.16-.38.17-.79.02-1.18-.15-.38-.43-.68-.81-.84Z"/>
    <path class="cls-2" d="m188.2,82.23c-5.14,0-7.82,4.07-7.82,8.09v1.32c0,4.99,3.29,8.35,8.2,8.35,1.45,0,2.99-.29,4.24-.8.36-.15.64-.42.79-.78.15-.36.14-.76-.01-1.12-.29-.72-1.13-1.07-1.92-.78-.97.37-2.01.56-3.1.56-2.87,0-4.75-1.57-5.19-4.31l10.91-.68c.76-.04,1.36-.67,1.36-1.44,0-5.19-2.86-8.42-7.45-8.42Zm4.45,7.06l-9.34.58c.19-2.23,1.56-4.72,4.89-4.72,2.56,0,4.06,1.39,4.45,4.14Z"/>
    <path class="cls-2" d="m216.31,82.11l-4.07.84c-.88-.5-1.87-.76-2.87-.76-1.62,0-3.12.61-4.23,1.73-1.06,1.07-1.64,2.48-1.63,3.99,0,1.06.29,2.08.87,3.04-1.38,1.12-2.07,2.2-2.07,3.22,0,1.26.38,2.39,1.09,3.27-.68,1.11-1.45,2.61-1.45,3.7,0,3.05,2.95,5.01,7.52,5.01s7.33-1.89,7.33-5.06c0-3.46-1.76-4.32-3.24-4.44l-7.01-.54c-1.29-.1-1.43-1.42-1.44-1.9.08-.17.46-.65,1.27-1.29.93.55,1.93.83,3,.83,3.28,0,5.84-2.51,5.84-5.71,0-.9-.21-1.78-.64-2.62l2.31-.48c.38-.08.71-.3.92-.62.22-.32.29-.72.21-1.11-.16-.78-.93-1.28-1.72-1.12Zm-3.76,5.94c0,1.7-1.39,3.03-3.16,3.03s-3.2-1.43-3.21-3.18c0-1.7,1.4-3.03,3.2-3.03s3.18,1.46,3.18,3.18Zm-7.8,13.1c0-.28.44-1.25,1.09-2.3.18.04.34.06.49.07l7.02.52h0c.33.02.64.05.64,1.66,0,2.04-3.17,2.26-4.53,2.26-2.34,0-4.72-.76-4.72-2.21Z"/>
    <path class="cls-2" d="m233.91,82.97c-.21-.12-1.34-.73-2.81-.73-1.24,0-2.9.58-3.9.98-.27-.44-.76-.73-1.3-.73-.84,0-1.53.68-1.53,1.53v14.18c0,.84.69,1.53,1.53,1.53s1.53-.69,1.53-1.53v-11.84c1.23-.54,2.9-1.07,3.67-1.07.66,0,1.21.29,1.25.31.74.44,1.66.2,2.1-.55.2-.35.26-.76.16-1.16-.1-.4-.35-.73-.7-.93Z"/>
    <path class="cls-2" d="m247.24,82.24c-1.54,0-3.38.38-5,.71l-.43.09c-.78.16-1.28.94-1.12,1.75.18.78.96,1.28,1.74,1.11,1.08-.23,3.71-.76,4.81-.76,1.35,0,2.97.89,2.97,1.99v1.8l-4.91.91c-2.35.44-5.05,1.37-5.05,4.77,0,3.11,2.31,5.37,5.49,5.37,1.15,0,2.66-.37,4.6-1.14.25.55.75.89,1.34.89.81,0,1.48-.65,1.48-1.46v-11.14c0-2.93-3.06-4.9-5.91-4.9Zm2.97,9.65v3.82c-.85.39-3.1,1.35-4.48,1.35-1.56,0-2.57-.96-2.57-2.45,0-.85.19-1.44,2.66-1.9l4.39-.83Z"/>
    <path class="cls-2" d="m271.83,96.64c-.37-.16-.79-.17-1.16-.03-.09.03-.93.32-1.53.32-1.97,0-3.04-.59-3.04-3.7v-7.66h3.67c.84,0,1.53-.69,1.53-1.53s-.68-1.53-1.53-1.53h-3.67v-3.99c0-.85-.69-1.54-1.53-1.54s-1.53.69-1.53,1.54v3.99h-1.87c-.84,0-1.53.68-1.53,1.53s.69,1.53,1.53,1.53h1.87v7.66c0,4.5,2.05,6.77,6.1,6.77,1.08,0,2.18-.37,2.61-.53l-.07-.23h0l.08.23h0c.38-.15.68-.44.85-.81.16-.38.17-.79.02-1.18-.15-.38-.43-.68-.81-.84Z"/>
    <path class="cls-2" d="m286.01,82.23c-5.14,0-7.82,4.07-7.82,8.09v1.32c0,4.99,3.29,8.35,8.2,8.35,1.45,0,2.99-.29,4.24-.8.36-.15.64-.42.79-.78.15-.36.14-.76-.01-1.12-.29-.72-1.13-1.07-1.92-.78-.97.37-2.01.56-3.1.56-2.87,0-4.75-1.57-5.19-4.31l10.91-.68c.76-.04,1.36-.67,1.36-1.44,0-5.19-2.86-8.42-7.45-8.42Zm4.45,7.06l-9.34.58c.19-2.23,1.56-4.72,4.89-4.72,2.56,0,4.06,1.39,4.45,4.14Z"/>
    <path class="cls-2" d="m313.26,75.81c-.84,0-1.53.69-1.53,1.53v5.61c-1.12-.37-2.57-.75-3.65-.75-4.94,0-8.26,3.57-8.26,8.89s3.32,8.91,8.26,8.91c.93,0,2.22-.28,3.95-.87.29.38.74.61,1.23.61.84,0,1.53-.69,1.53-1.53v-20.87c0-.84-.68-1.53-1.53-1.53Zm-5.18,9.45c.87,0,2.6.49,3.65.87v9.89c-1.17.44-2.84.89-3.65.89-3.31,0-5.21-2.13-5.21-5.84s1.9-5.82,5.21-5.82Z"/>
    <path class="cls-2" d="m327.09,74.19l-3.74-.36c-.38-.04-.76.08-1.06.32-.3.25-.49.59-.52.98-.04.4.08.78.33,1.08.25.29.59.47.97.5l2.44.22v26l-2.44.22c-.38.03-.73.21-.97.5-.25.3-.37.69-.33,1.08.04.38.23.73.52.98.26.22.58.33.91.33.05,0,.1,0,.15,0l3.74-.36c.73-.06,1.3-.69,1.3-1.44v-28.61c0-.75-.57-1.38-1.3-1.44Z"/>
  </g>
</svg>