<?xml version="1.0" encoding="UTF-8"?>
<svg id="Layer_1" data-name="Layer 1" xmlns="http://www.w3.org/2000/svg" viewBox="0 0 283.46 204.09">
  <defs>
    <style>
      .cls-1 {
        fill: #6e6f71;
      }

      .cls-1, .cls-2 {
        stroke-width: 0px;
      }

      .cls-2 {
        fill: #f04f46;
      }
    </style>
  </defs>
  <g>
    <path class="cls-2" d="m168.34,33.39c0,13.69-11.03,24.79-24.63,24.79s-24.65-11.1-24.65-24.79,11.04-24.79,24.65-24.79,24.63,11.1,24.63,24.79Z"/>
    <g>
      <path class="cls-1" d="m143.71,146.14c-5.39,0-9.75-4.39-9.75-9.81,0-18.82,12.67-37.6,37.67-55.8,17.43-12.69,34.64-20.5,35.37-20.83,4.92-2.21,10.69,0,12.89,4.94,2.2,4.95,0,10.75-4.92,12.97-.16.07-16.33,7.43-32.14,18.99-13.39,9.79-29.36,24.63-29.36,39.72,0,5.42-4.37,9.81-9.75,9.81Z"/>
      <path class="cls-1" d="m143.71,195.49c-5.39,0-9.75-4.39-9.75-9.81v-49.35c0-15.1-15.97-29.93-29.36-39.72-15.82-11.56-32-18.92-32.16-18.99-4.91-2.22-7.11-8.02-4.91-12.97,2.2-4.94,7.97-7.15,12.88-4.94.72.33,17.94,8.13,35.38,20.83,25,18.2,37.68,36.97,37.68,55.8v49.35c0,5.42-4.37,9.81-9.75,9.81Z"/>
    </g>
  </g>
  <path class="cls-2" d="m41.75,187.49c1.57,1.84,2.28,4.2,2.03,6.62-.25,2.36-1.4,4.5-3.27,6.01-1.62,1.32-3.57,2-5.55,2-.3,0-.6,0-.91-.03l-23.26-2.22c-4.61-.49-7.97-4.23-7.97-8.84V13.08c0-4.61,3.35-8.35,7.97-8.84l23.29-2.22c2.28-.22,4.56.47,6.43,1.98,1.87,1.51,3.02,3.65,3.27,5.99.25,2.44-.47,4.81-2.03,6.65-1.51,1.81-3.63,2.91-5.96,3.08l-15.27,1.37v161.97l15.3,1.37c2.31.16,4.42,1.26,5.93,3.08Z"/>
  <path class="cls-2" d="m280.63,13.07v177.95c0,4.61-3.35,8.35-7.97,8.84l-23.29,2.22c-.3.03-.6.03-.91.03-1.98,0-3.93-.69-5.52-2-1.89-1.51-3.05-3.65-3.3-6.01-.25-2.42.49-4.78,2.03-6.62,1.51-1.81,3.63-2.91,5.99-3.1l15.24-1.35V21.06l-15.27-1.37c-2.33-.16-4.45-1.26-5.96-3.08-1.54-1.84-2.28-4.2-2.03-6.62.25-2.36,1.4-4.5,3.3-6.01,1.84-1.51,4.15-2.2,6.43-1.95l23.26,2.2c4.64.49,7.99,4.23,7.99,8.84Z"/>
</svg>