<svg xmlns="http://www.w3.org/2000/svg" xmlns:xlink="http://www.w3.org/1999/xlink" width="566" zoomAndPan="magnify" viewBox="0 0 425.03998 107.999999" height="144" preserveAspectRatio="xMidYMid meet" version="1.0"><defs><g/><clipPath id="ab7e48943b"><path d="M 1.316406 22.097656 L 36.859375 22.097656 L 36.859375 79.355469 L 1.316406 79.355469 Z M 1.316406 22.097656 " clip-rule="nonzero"/></clipPath><clipPath id="97ba965e83"><path d="M 17.121094 28.382812 C 14.804688 28.382812 10.257812 29.710938 7.601562 30.738281 L 7.601562 55.722656 C 10.246094 56.71875 14.804688 58.039062 17.121094 58.039062 C 25.472656 58.039062 30.441406 52.488281 30.441406 43.230469 C 30.441406 33.921875 25.480469 28.375 17.121094 28.375 M 17.121094 64.363281 C 14.226562 64.363281 10.296875 63.207031 7.601562 62.296875 L 7.601562 76.15625 C 7.601562 77.894531 6.195312 79.339844 4.460938 79.339844 C 2.722656 79.339844 1.316406 77.894531 1.316406 76.15625 L 1.316406 25.820312 C 1.316406 24.085938 2.722656 22.675781 4.460938 22.675781 C 5.65625 22.675781 6.695312 23.347656 7.234375 24.292969 C 9.878906 23.375 14.058594 22.097656 17.121094 22.097656 C 28.863281 22.097656 36.726562 30.578125 36.726562 43.230469 C 36.726562 55.851562 28.863281 64.363281 17.121094 64.363281 " clip-rule="nonzero"/></clipPath><clipPath id="3caedeaeeb"><path d="M 52.660156 22.097656 L 83.136719 22.097656 L 83.136719 64.316406 L 52.660156 64.316406 Z M 52.660156 22.097656 " clip-rule="nonzero"/></clipPath><clipPath id="74c81b1084"><path d="M 77.023438 44.386719 L 65.609375 46.542969 C 59.8125 47.621094 58.617188 49.027344 58.617188 51.75 C 58.617188 55.722656 61.347656 58.328125 65.480469 58.328125 C 68.792969 58.328125 74 56.222656 77.023438 54.8125 Z M 83.019531 60.691406 C 83.019531 62.347656 81.652344 63.664062 79.996094 63.664062 C 78.628906 63.664062 77.472656 62.757812 77.054688 61.308594 C 73.582031 62.714844 69.070312 64.28125 65.46875 64.28125 C 58.035156 64.28125 52.660156 58.996094 52.660156 51.75 C 52.660156 44.21875 58.285156 41.824219 64.53125 40.667969 L 77.023438 38.351562 L 77.023438 33.472656 C 77.023438 30.328125 72.722656 28.015625 69.171875 28.015625 C 66.359375 28.015625 59.652344 29.382812 57.296875 29.871094 C 55.730469 30.199219 54.117188 29.210938 53.746094 27.59375 C 53.417969 25.980469 54.40625 24.363281 56.019531 24.042969 C 60.0625 23.214844 65.109375 22.097656 69.160156 22.097656 C 75.867188 22.097656 83.019531 26.6875 83.019531 33.472656 Z M 83.019531 60.691406 " clip-rule="nonzero"/></clipPath><clipPath id="869bb7eeab"><path d="M 110.753906 5 L 126.957031 5 L 126.957031 20.953125 L 110.753906 20.953125 Z M 110.753906 5 " clip-rule="nonzero"/></clipPath><clipPath id="1ec4071418"><path d="M 126.734375 12.992188 C 126.734375 17.34375 123.199219 20.875 118.851562 20.875 C 114.5 20.875 110.96875 17.34375 110.96875 12.992188 C 110.96875 8.640625 114.5 5.109375 118.859375 5.109375 C 123.222656 5.109375 126.742188 8.640625 126.742188 12.992188 " clip-rule="nonzero"/></clipPath><clipPath id="6a0891b7fe"><path d="M 115.613281 21 L 143.621094 21 L 143.621094 48.960938 L 115.613281 48.960938 Z M 115.613281 21 " clip-rule="nonzero"/></clipPath><clipPath id="b99b10aade"><path d="M 118.859375 48.851562 C 117.132812 48.851562 115.738281 47.453125 115.738281 45.726562 C 115.738281 39.742188 119.789062 33.777344 127.789062 27.988281 C 133.367188 23.949219 138.875 21.472656 139.105469 21.363281 C 140.679688 20.664062 142.527344 21.363281 143.226562 22.941406 C 143.921875 24.515625 143.226562 26.363281 141.648438 27.0625 C 141.597656 27.082031 136.421875 29.425781 131.371094 33.097656 C 127.09375 36.210938 121.984375 40.929688 121.984375 45.726562 C 121.984375 47.453125 120.585938 48.851562 118.859375 48.851562 " clip-rule="nonzero"/></clipPath><clipPath id="839c17c644"><path d="M 94.089844 21 L 122 21 L 122 64.699219 L 94.089844 64.699219 Z M 94.089844 21 " clip-rule="nonzero"/></clipPath><clipPath id="960fd8d032"><path d="M 118.859375 64.546875 C 117.132812 64.546875 115.738281 63.148438 115.738281 61.421875 L 115.738281 45.726562 C 115.738281 40.929688 110.628906 36.210938 106.347656 33.097656 C 101.289062 29.414062 96.113281 27.082031 96.0625 27.0625 C 94.496094 26.351562 93.789062 24.507812 94.496094 22.941406 C 95.203125 21.375 97.039062 20.664062 98.617188 21.363281 C 98.847656 21.464844 104.355469 23.949219 109.929688 27.988281 C 117.933594 33.777344 121.984375 39.742188 121.984375 45.726562 L 121.984375 61.421875 C 121.984375 63.148438 120.585938 64.546875 118.859375 64.546875 " clip-rule="nonzero"/></clipPath><clipPath id="5d2e427628"><path d="M 154.707031 22.097656 L 185.183594 22.097656 L 185.183594 64.316406 L 154.707031 64.316406 Z M 154.707031 22.097656 " clip-rule="nonzero"/></clipPath><clipPath id="ee46765299"><path d="M 179.074219 44.386719 L 167.65625 46.542969 C 161.871094 47.621094 160.664062 49.027344 160.664062 51.75 C 160.664062 55.722656 163.398438 58.328125 167.527344 58.328125 C 170.839844 58.328125 176.050781 56.222656 179.074219 54.8125 Z M 185.070312 60.691406 C 185.070312 62.347656 183.703125 63.664062 182.054688 63.664062 C 180.6875 63.664062 179.53125 62.757812 179.113281 61.308594 C 175.640625 62.714844 171.128906 64.28125 167.527344 64.28125 C 160.085938 64.28125 154.707031 58.996094 154.707031 51.75 C 154.707031 44.21875 160.335938 41.824219 166.582031 40.667969 L 179.074219 38.351562 L 179.074219 33.472656 C 179.074219 30.328125 174.773438 28.015625 171.210938 28.015625 C 168.394531 28.015625 161.703125 29.382812 159.335938 29.871094 C 157.761719 30.199219 156.152344 29.210938 155.773438 27.59375 C 155.445312 25.980469 156.433594 24.363281 158.050781 24.042969 C 162.109375 23.214844 167.160156 22.097656 171.210938 22.097656 C 177.914062 22.097656 185.070312 26.6875 185.070312 33.472656 Z M 185.070312 60.691406 " clip-rule="nonzero"/></clipPath><clipPath id="473ed55439"><path d="M 203.894531 22.015625 L 235.214844 22.015625 L 235.214844 64.347656 L 203.894531 64.347656 Z M 203.894531 22.015625 " clip-rule="nonzero"/></clipPath><clipPath id="879f39efe6"><path d="M 232.847656 62.921875 C 229.535156 63.789062 227.71875 64.289062 224.078125 64.289062 C 211.796875 64.289062 203.894531 55.148438 203.894531 43.148438 C 203.894531 31.144531 211.796875 22.015625 224.078125 22.015625 C 226.933594 22.015625 229.867188 22.472656 232.769531 23.34375 C 234.585938 23.921875 235.582031 25.617188 235.082031 27.3125 C 234.625 28.96875 232.847656 29.957031 231.191406 29.457031 C 228.878906 28.757812 226.511719 28.300781 224.078125 28.300781 C 215.308594 28.300781 210.21875 34.675781 210.21875 43.148438 C 210.21875 51.617188 215.308594 57.992188 224.078125 57.992188 C 226.722656 57.992188 228.835938 57.375 231.3125 56.796875 C 233.007812 56.386719 234.703125 57.414062 235.125 59.109375 C 235.53125 60.765625 234.503906 62.503906 232.847656 62.921875 " clip-rule="nonzero"/></clipPath><clipPath id="628af372f0"><path d="M 251.261719 22.015625 L 282.582031 22.015625 L 282.582031 64.347656 L 251.261719 64.347656 Z M 251.261719 22.015625 " clip-rule="nonzero"/></clipPath><clipPath id="b4896516a6"><path d="M 280.214844 62.921875 C 276.902344 63.789062 275.085938 64.289062 271.445312 64.289062 C 259.160156 64.289062 251.261719 55.148438 251.261719 43.148438 C 251.261719 31.144531 259.160156 22.015625 271.445312 22.015625 C 274.296875 22.015625 277.230469 22.472656 280.125 23.34375 C 281.949219 23.921875 282.9375 25.617188 282.4375 27.3125 C 281.980469 28.96875 280.203125 29.957031 278.546875 29.457031 C 276.234375 28.757812 273.878906 28.300781 271.433594 28.300781 C 262.664062 28.300781 257.574219 34.675781 257.574219 43.148438 C 257.574219 51.617188 262.664062 57.992188 271.433594 57.992188 C 274.078125 57.992188 276.191406 57.375 278.675781 56.796875 C 280.375 56.386719 282.070312 57.414062 282.480469 59.109375 C 282.898438 60.765625 281.859375 62.503906 280.203125 62.921875 " clip-rule="nonzero"/></clipPath><clipPath id="2cff90ff25"><path d="M 299.289062 22 L 327.695312 22 L 327.695312 64.320312 L 299.289062 64.320312 Z M 299.289062 22 " clip-rule="nonzero"/></clipPath><clipPath id="49cc8104fe"><path d="M 313.226562 64.285156 C 310.742188 64.285156 305.535156 63.824219 302.3125 63.007812 C 300.617188 62.546875 299.617188 60.851562 300.039062 59.207031 C 300.496094 57.507812 302.230469 56.472656 303.878906 56.929688 C 306.28125 57.550781 310.792969 58.007812 313.226562 58.007812 C 314.054688 58.007812 321.25 57.839844 321.25 52.671875 C 321.25 49.648438 320.382812 48.867188 317.6875 47.949219 L 307.191406 44.429688 C 303.507812 43.191406 299.289062 40.917969 299.289062 33.722656 C 299.289062 25.742188 306.730469 22.097656 313.6875 22.097656 C 316.332031 22.097656 321.507812 22.636719 324.402344 23.375 C 326.058594 23.796875 327.136719 25.53125 326.675781 27.21875 C 326.257812 28.875 324.523438 29.910156 322.824219 29.492188 C 320.511719 28.914062 315.882812 28.375 313.6875 28.375 C 312.859375 28.375 305.625 28.542969 305.625 33.710938 C 305.625 36.734375 306.53125 37.515625 309.1875 38.433594 L 319.734375 41.992188 C 323.375 43.230469 327.59375 45.507812 327.59375 52.660156 C 327.59375 60.683594 320.152344 64.285156 313.238281 64.285156 " clip-rule="nonzero"/></clipPath><clipPath id="5ad7c1371f"><path d="M 341.375 22.578125 L 379.179688 22.578125 L 379.179688 79 L 341.375 79 Z M 341.375 22.578125 " clip-rule="nonzero"/></clipPath><clipPath id="2f6b9a8917"><path d="M 362.125 67.261719 C 358.980469 74.835938 353.316406 78.847656 344.792969 79.007812 C 343.019531 79.058594 341.609375 77.769531 341.519531 75.953125 C 341.441406 74.21875 342.808594 72.769531 344.542969 72.679688 C 350.671875 72.472656 354.0625 70.195312 356.296875 64.820312 L 357.574219 61.757812 L 343.136719 27.183594 C 342.480469 25.566406 343.21875 23.710938 344.832031 23.042969 C 346.449219 22.375 348.304688 23.132812 348.972656 24.75 L 360.96875 53.535156 L 372.960938 24.660156 C 373.617188 23.042969 375.484375 22.304688 377.101562 22.964844 C 378.71875 23.621094 379.457031 25.488281 378.796875 27.105469 Z M 362.125 67.261719 " clip-rule="nonzero"/></clipPath><clipPath id="15822caa86"><path d="M 394.4375 22.097656 L 422.835938 22.097656 L 422.835938 64.316406 L 394.4375 64.316406 Z M 394.4375 22.097656 " clip-rule="nonzero"/></clipPath><clipPath id="67e1e41b2d"><path d="M 408.375 64.285156 C 405.890625 64.285156 400.683594 63.824219 397.457031 63.007812 C 395.761719 62.546875 394.773438 60.851562 395.183594 59.207031 C 395.644531 57.507812 397.378906 56.472656 399.035156 56.929688 C 401.441406 57.550781 405.941406 58.007812 408.382812 58.007812 C 409.210938 58.007812 416.40625 57.839844 416.40625 52.671875 C 416.40625 49.648438 415.539062 48.867188 412.84375 47.949219 L 402.339844 44.429688 C 398.65625 43.191406 394.4375 40.917969 394.4375 33.722656 C 394.4375 25.742188 401.878906 22.097656 408.824219 22.097656 C 411.46875 22.097656 416.644531 22.636719 419.539062 23.375 C 421.195312 23.796875 422.273438 25.53125 421.8125 27.21875 C 421.394531 28.875 419.660156 29.910156 417.972656 29.492188 C 415.65625 28.914062 411.019531 28.375 408.824219 28.375 C 407.996094 28.375 400.761719 28.542969 400.761719 33.710938 C 400.761719 36.734375 401.667969 37.515625 404.324219 38.433594 L 414.871094 41.992188 C 418.511719 43.230469 422.730469 45.507812 422.730469 52.660156 C 422.730469 60.683594 415.289062 64.285156 408.375 64.285156 " clip-rule="nonzero"/></clipPath></defs><g clip-path="url(#ab7e48943b)"><g clip-path="url(#97ba965e83)"><path fill="#6e6f71" d="M 1.316406 22.097656 L 36.722656 22.097656 L 36.722656 79.355469 L 1.316406 79.355469 Z M 1.316406 22.097656 " fill-opacity="1" fill-rule="nonzero"/></g></g><g clip-path="url(#3caedeaeeb)"><g clip-path="url(#74c81b1084)"><path fill="#6e6f71" d="M 52.660156 22.097656 L 83.019531 22.097656 L 83.019531 64.316406 L 52.660156 64.316406 Z M 52.660156 22.097656 " fill-opacity="1" fill-rule="nonzero"/></g></g><g clip-path="url(#869bb7eeab)"><g clip-path="url(#1ec4071418)"><path fill="#f04f47" d="M 89.226562 0.121094 L 148.484375 0.121094 L 148.484375 69.5625 L 89.226562 69.5625 Z M 89.226562 0.121094 " fill-opacity="1" fill-rule="nonzero"/></g></g><g clip-path="url(#6a0891b7fe)"><g clip-path="url(#b99b10aade)"><path fill="#6e6f71" d="M 89.226562 0.121094 L 148.484375 0.121094 L 148.484375 69.5625 L 89.226562 69.5625 Z M 89.226562 0.121094 " fill-opacity="1" fill-rule="nonzero"/></g></g><g clip-path="url(#839c17c644)"><g clip-path="url(#960fd8d032)"><path fill="#6e6f71" d="M 89.226562 0.121094 L 148.484375 0.121094 L 148.484375 69.5625 L 89.226562 69.5625 Z M 89.226562 0.121094 " fill-opacity="1" fill-rule="nonzero"/></g></g><g clip-path="url(#5d2e427628)"><g clip-path="url(#ee46765299)"><path fill="#6e6f71" d="M 154.707031 22.097656 L 185.066406 22.097656 L 185.066406 64.316406 L 154.707031 64.316406 Z M 154.707031 22.097656 " fill-opacity="1" fill-rule="nonzero"/></g></g><g clip-path="url(#473ed55439)"><g clip-path="url(#879f39efe6)"><path fill="#6e6f71" d="M 203.894531 22.015625 L 235.214844 22.015625 L 235.214844 64.226562 L 203.894531 64.226562 Z M 203.894531 22.015625 " fill-opacity="1" fill-rule="nonzero"/></g></g><g clip-path="url(#628af372f0)"><g clip-path="url(#b4896516a6)"><path fill="#6e6f71" d="M 251.261719 22.015625 L 282.582031 22.015625 L 282.582031 64.347656 L 251.261719 64.347656 Z M 251.261719 22.015625 " fill-opacity="1" fill-rule="nonzero"/></g></g><g clip-path="url(#2cff90ff25)"><g clip-path="url(#49cc8104fe)"><path fill="#6e6f71" d="M 299.289062 22.097656 L 327.582031 22.097656 L 327.582031 64.320312 L 299.289062 64.320312 Z M 299.289062 22.097656 " fill-opacity="1" fill-rule="nonzero"/></g></g><g clip-path="url(#5ad7c1371f)"><g clip-path="url(#2f6b9a8917)"><path fill="#6e6f71" d="M 341.519531 22.722656 L 379.035156 22.722656 L 379.035156 78.992188 L 341.519531 78.992188 Z M 341.519531 22.722656 " fill-opacity="1" fill-rule="nonzero"/></g></g><g clip-path="url(#15822caa86)"><g clip-path="url(#67e1e41b2d)"><path fill="#6e6f71" d="M 394.4375 22.097656 L 422.726562 22.097656 L 422.726562 64.316406 L 394.4375 64.316406 Z M 394.4375 22.097656 " fill-opacity="1" fill-rule="nonzero"/></g></g><g fill="#f04f47" fill-opacity="1"><g transform="translate(158.476653, 90.478648)"><g><path d="M 7.8125 5.46875 C 7.78125 5.75 7.648438 5.976562 7.421875 6.15625 C 7.203125 6.34375 6.953125 6.425781 6.671875 6.40625 L 3.453125 6.09375 C 3.171875 6.0625 2.941406 5.945312 2.765625 5.75 C 2.597656 5.5625 2.515625 5.332031 2.515625 5.0625 L 2.515625 -19.640625 C 2.515625 -19.910156 2.597656 -20.140625 2.765625 -20.328125 C 2.941406 -20.523438 3.171875 -20.640625 3.453125 -20.671875 L 6.671875 -20.984375 C 6.953125 -21.015625 7.203125 -20.9375 7.421875 -20.75 C 7.648438 -20.5625 7.78125 -20.328125 7.8125 -20.046875 C 7.84375 -19.753906 7.765625 -19.492188 7.578125 -19.265625 C 7.398438 -19.046875 7.164062 -18.925781 6.875 -18.90625 L 4.59375 -18.703125 L 4.59375 4.125 L 6.875 4.328125 C 7.164062 4.347656 7.398438 4.46875 7.578125 4.6875 C 7.765625 4.914062 7.84375 5.175781 7.8125 5.46875 Z M 7.8125 5.46875 "/></g></g></g><g fill="#f04f47" fill-opacity="1"><g transform="translate(167.271702, 90.478648)"><g><path d="M 14.96875 -6.25 C 14.96875 -5.144531 14.800781 -4.132812 14.46875 -3.21875 C 14.144531 -2.300781 13.675781 -1.507812 13.0625 -0.84375 C 12.457031 -0.1875 11.726562 0.316406 10.875 0.671875 C 10.03125 1.035156 9.085938 1.21875 8.046875 1.21875 C 7.703125 1.21875 7.332031 1.175781 6.9375 1.09375 C 6.539062 1.019531 6.144531 0.925781 5.75 0.8125 C 5.363281 0.695312 5.007812 0.585938 4.6875 0.484375 L 4.6875 5.375 C 4.6875 5.675781 4.578125 5.9375 4.359375 6.15625 C 4.148438 6.382812 3.890625 6.5 3.578125 6.5 C 3.273438 6.5 3.015625 6.382812 2.796875 6.15625 C 2.578125 5.9375 2.46875 5.675781 2.46875 5.375 L 2.46875 -12.40625 C 2.46875 -12.71875 2.578125 -12.976562 2.796875 -13.1875 C 3.015625 -13.40625 3.273438 -13.515625 3.578125 -13.515625 C 3.796875 -13.515625 3.988281 -13.457031 4.15625 -13.34375 C 4.320312 -13.238281 4.457031 -13.101562 4.5625 -12.9375 C 4.875 -13.050781 5.226562 -13.164062 5.625 -13.28125 C 6.03125 -13.40625 6.445312 -13.507812 6.875 -13.59375 C 7.300781 -13.675781 7.691406 -13.71875 8.046875 -13.71875 C 9.085938 -13.71875 10.03125 -13.539062 10.875 -13.1875 C 11.726562 -12.832031 12.457031 -12.328125 13.0625 -11.671875 C 13.675781 -11.015625 14.144531 -10.226562 14.46875 -9.3125 C 14.800781 -8.394531 14.96875 -7.375 14.96875 -6.25 Z M 12.75 -6.25 C 12.75 -7.351562 12.5625 -8.289062 12.1875 -9.0625 C 11.8125 -9.84375 11.273438 -10.441406 10.578125 -10.859375 C 9.878906 -11.285156 9.035156 -11.5 8.046875 -11.5 C 7.773438 -11.5 7.429688 -11.453125 7.015625 -11.359375 C 6.609375 -11.273438 6.195312 -11.171875 5.78125 -11.046875 C 5.363281 -10.921875 5 -10.796875 4.6875 -10.671875 L 4.6875 -1.84375 C 5 -1.726562 5.363281 -1.601562 5.78125 -1.46875 C 6.195312 -1.34375 6.609375 -1.234375 7.015625 -1.140625 C 7.429688 -1.054688 7.773438 -1.015625 8.046875 -1.015625 C 9.035156 -1.015625 9.878906 -1.222656 10.578125 -1.640625 C 11.273438 -2.066406 11.8125 -2.664062 12.1875 -3.4375 C 12.5625 -4.21875 12.75 -5.15625 12.75 -6.25 Z M 12.75 -6.25 "/></g></g></g><g fill="#f04f47" fill-opacity="1"><g transform="translate(183.86834, 90.478648)"><g><path d="M 12.3125 -9.703125 L 12.3125 -0.09375 C 12.3125 0.195312 12.207031 0.445312 12 0.65625 C 11.789062 0.863281 11.539062 0.96875 11.25 0.96875 C 11.007812 0.96875 10.796875 0.890625 10.609375 0.734375 C 10.421875 0.585938 10.289062 0.382812 10.21875 0.125 C 9.800781 0.289062 9.359375 0.453125 8.890625 0.609375 C 8.421875 0.773438 7.945312 0.910156 7.46875 1.015625 C 7 1.128906 6.550781 1.1875 6.125 1.1875 C 5.25 1.1875 4.46875 0.992188 3.78125 0.609375 C 3.101562 0.222656 2.566406 -0.300781 2.171875 -0.96875 C 1.785156 -1.632812 1.59375 -2.394531 1.59375 -3.25 C 1.59375 -3.90625 1.707031 -4.460938 1.9375 -4.921875 C 2.164062 -5.378906 2.472656 -5.753906 2.859375 -6.046875 C 3.253906 -6.335938 3.703125 -6.570312 4.203125 -6.75 C 4.703125 -6.925781 5.226562 -7.0625 5.78125 -7.15625 L 10.203125 -7.984375 L 10.203125 -9.703125 C 10.203125 -10.066406 10.054688 -10.394531 9.765625 -10.6875 C 9.484375 -10.988281 9.125 -11.21875 8.6875 -11.375 C 8.257812 -11.539062 7.835938 -11.625 7.421875 -11.625 C 7.179688 -11.625 6.867188 -11.597656 6.484375 -11.546875 C 6.097656 -11.503906 5.691406 -11.441406 5.265625 -11.359375 C 4.835938 -11.285156 4.441406 -11.210938 4.078125 -11.140625 C 3.710938 -11.078125 3.429688 -11.019531 3.234375 -10.96875 C 2.953125 -10.914062 2.6875 -10.96875 2.4375 -11.125 C 2.195312 -11.28125 2.039062 -11.5 1.96875 -11.78125 C 1.914062 -12.0625 1.96875 -12.320312 2.125 -12.5625 C 2.28125 -12.8125 2.5 -12.96875 2.78125 -13.03125 C 3.25 -13.125 3.75 -13.222656 4.28125 -13.328125 C 4.820312 -13.441406 5.359375 -13.535156 5.890625 -13.609375 C 6.429688 -13.679688 6.941406 -13.71875 7.421875 -13.71875 C 8.015625 -13.71875 8.597656 -13.617188 9.171875 -13.421875 C 9.753906 -13.234375 10.28125 -12.960938 10.75 -12.609375 C 11.226562 -12.253906 11.609375 -11.832031 11.890625 -11.34375 C 12.171875 -10.851562 12.3125 -10.304688 12.3125 -9.703125 Z M 10.203125 -2.15625 L 10.203125 -5.84375 L 6.171875 -5.078125 C 5.484375 -4.953125 4.960938 -4.804688 4.609375 -4.640625 C 4.253906 -4.484375 4.015625 -4.289062 3.890625 -4.0625 C 3.765625 -3.832031 3.703125 -3.5625 3.703125 -3.25 C 3.703125 -2.539062 3.921875 -1.972656 4.359375 -1.546875 C 4.804688 -1.128906 5.394531 -0.921875 6.125 -0.921875 C 6.507812 -0.921875 6.953125 -0.988281 7.453125 -1.125 C 7.953125 -1.257812 8.445312 -1.421875 8.9375 -1.609375 C 9.425781 -1.804688 9.847656 -1.988281 10.203125 -2.15625 Z M 10.203125 -2.15625 "/></g></g></g><g fill="#f04f47" fill-opacity="1"><g transform="translate(198.536495, 90.478648)"><g><path d="M 13.515625 -11.953125 L 7.625 2.234375 C 7.070312 3.566406 6.289062 4.582031 5.28125 5.28125 C 4.269531 5.988281 3.007812 6.359375 1.5 6.390625 C 1.1875 6.398438 0.921875 6.300781 0.703125 6.09375 C 0.484375 5.882812 0.363281 5.617188 0.34375 5.296875 C 0.34375 4.992188 0.445312 4.726562 0.65625 4.5 C 0.863281 4.269531 1.117188 4.15625 1.421875 4.15625 C 2.492188 4.113281 3.351562 3.875 4 3.4375 C 4.65625 3.007812 5.175781 2.320312 5.5625 1.375 L 6.015625 0.296875 L 0.921875 -11.921875 C 0.804688 -12.203125 0.804688 -12.484375 0.921875 -12.765625 C 1.035156 -13.054688 1.234375 -13.265625 1.515625 -13.390625 C 1.796875 -13.503906 2.082031 -13.5 2.375 -13.375 C 2.664062 -13.257812 2.867188 -13.0625 2.984375 -12.78125 L 7.21875 -2.609375 L 11.453125 -12.8125 C 11.566406 -13.09375 11.765625 -13.289062 12.046875 -13.40625 C 12.335938 -13.53125 12.628906 -13.53125 12.921875 -13.40625 C 13.203125 -13.289062 13.398438 -13.085938 13.515625 -12.796875 C 13.628906 -12.515625 13.628906 -12.234375 13.515625 -11.953125 Z M 13.515625 -11.953125 "/></g></g></g><g fill="#f04f47" fill-opacity="1"><g transform="translate(212.970895, 90.478648)"><g><path d="M 10.765625 -11.59375 C 10.609375 -11.320312 10.378906 -11.148438 10.078125 -11.078125 C 9.785156 -11.003906 9.503906 -11.046875 9.234375 -11.203125 C 9.234375 -11.203125 9.117188 -11.25 8.890625 -11.34375 C 8.660156 -11.445312 8.378906 -11.5 8.046875 -11.5 C 7.804688 -11.5 7.488281 -11.445312 7.09375 -11.34375 C 6.707031 -11.25 6.296875 -11.125 5.859375 -10.96875 C 5.429688 -10.820312 5.035156 -10.664062 4.671875 -10.5 L 4.671875 -0.140625 C 4.671875 0.160156 4.5625 0.421875 4.34375 0.640625 C 4.132812 0.859375 3.875 0.96875 3.5625 0.96875 C 3.257812 0.96875 3 0.859375 2.78125 0.640625 C 2.5625 0.421875 2.453125 0.160156 2.453125 -0.140625 L 2.453125 -12.390625 C 2.453125 -12.703125 2.5625 -12.960938 2.78125 -13.171875 C 3 -13.390625 3.257812 -13.5 3.5625 -13.5 C 3.789062 -13.5 4 -13.4375 4.1875 -13.3125 C 4.375 -13.1875 4.507812 -13.019531 4.59375 -12.8125 C 4.925781 -12.957031 5.296875 -13.097656 5.703125 -13.234375 C 6.117188 -13.367188 6.53125 -13.484375 6.9375 -13.578125 C 7.34375 -13.671875 7.710938 -13.71875 8.046875 -13.71875 C 8.460938 -13.71875 8.835938 -13.671875 9.171875 -13.578125 C 9.515625 -13.484375 9.789062 -13.390625 10 -13.296875 C 10.21875 -13.203125 10.34375 -13.144531 10.375 -13.125 C 10.632812 -12.96875 10.800781 -12.738281 10.875 -12.4375 C 10.957031 -12.144531 10.921875 -11.863281 10.765625 -11.59375 Z M 10.765625 -11.59375 "/></g></g></g><g fill="#f04f47" fill-opacity="1"><g transform="translate(224.541791, 90.478648)"><g><path d="M 15.8125 -6.328125 C 15.8125 -5.253906 15.628906 -4.257812 15.265625 -3.34375 C 14.910156 -2.4375 14.410156 -1.640625 13.765625 -0.953125 C 13.117188 -0.273438 12.363281 0.25 11.5 0.625 C 10.644531 1 9.707031 1.1875 8.6875 1.1875 C 7.675781 1.1875 6.738281 1 5.875 0.625 C 5.019531 0.257812 4.269531 -0.253906 3.625 -0.921875 C 2.976562 -1.597656 2.476562 -2.382812 2.125 -3.28125 C 1.769531 -4.1875 1.59375 -5.164062 1.59375 -6.21875 C 1.59375 -7.289062 1.769531 -8.28125 2.125 -9.1875 C 2.476562 -10.101562 2.976562 -10.898438 3.625 -11.578125 C 4.269531 -12.265625 5.019531 -12.796875 5.875 -13.171875 C 6.738281 -13.546875 7.675781 -13.734375 8.6875 -13.734375 C 9.707031 -13.734375 10.644531 -13.546875 11.5 -13.171875 C 12.363281 -12.804688 13.117188 -12.285156 13.765625 -11.609375 C 14.410156 -10.941406 14.910156 -10.15625 15.265625 -9.25 C 15.628906 -8.351562 15.8125 -7.378906 15.8125 -6.328125 Z M 13.578125 -6.328125 C 13.578125 -7.078125 13.453125 -7.765625 13.203125 -8.390625 C 12.960938 -9.023438 12.625 -9.570312 12.1875 -10.03125 C 11.75 -10.5 11.234375 -10.859375 10.640625 -11.109375 C 10.046875 -11.367188 9.394531 -11.5 8.6875 -11.5 C 7.988281 -11.5 7.34375 -11.363281 6.75 -11.09375 C 6.15625 -10.832031 5.640625 -10.46875 5.203125 -10 C 4.765625 -9.53125 4.421875 -8.972656 4.171875 -8.328125 C 3.929688 -7.679688 3.8125 -6.976562 3.8125 -6.21875 C 3.8125 -5.46875 3.929688 -4.78125 4.171875 -4.15625 C 4.421875 -3.53125 4.765625 -2.984375 5.203125 -2.515625 C 5.640625 -2.046875 6.15625 -1.679688 6.75 -1.421875 C 7.34375 -1.171875 7.988281 -1.046875 8.6875 -1.046875 C 9.394531 -1.046875 10.046875 -1.175781 10.640625 -1.4375 C 11.234375 -1.707031 11.75 -2.078125 12.1875 -2.546875 C 12.625 -3.023438 12.960938 -3.582031 13.203125 -4.21875 C 13.453125 -4.863281 13.578125 -5.566406 13.578125 -6.328125 Z M 13.578125 -6.328125 "/></g></g></g><g fill="#f04f47" fill-opacity="1"><g transform="translate(241.941969, 90.478648)"><g><path d="M 4.828125 -18.140625 L 4.828125 -0.140625 C 4.828125 0.160156 4.71875 0.421875 4.5 0.640625 C 4.28125 0.859375 4.019531 0.96875 3.71875 0.96875 C 3.414062 0.96875 3.148438 0.859375 2.921875 0.640625 C 2.703125 0.421875 2.59375 0.160156 2.59375 -0.140625 L 2.59375 -18.140625 C 2.59375 -18.453125 2.703125 -18.710938 2.921875 -18.921875 C 3.148438 -19.140625 3.414062 -19.25 3.71875 -19.25 C 4.019531 -19.25 4.28125 -19.140625 4.5 -18.921875 C 4.71875 -18.710938 4.828125 -18.453125 4.828125 -18.140625 Z M 4.828125 -18.140625 "/></g></g></g><g fill="#f04f47" fill-opacity="1"><g transform="translate(249.363705, 90.478648)"><g><path d="M 4.828125 -18.140625 L 4.828125 -0.140625 C 4.828125 0.160156 4.71875 0.421875 4.5 0.640625 C 4.28125 0.859375 4.019531 0.96875 3.71875 0.96875 C 3.414062 0.96875 3.148438 0.859375 2.921875 0.640625 C 2.703125 0.421875 2.59375 0.160156 2.59375 -0.140625 L 2.59375 -18.140625 C 2.59375 -18.453125 2.703125 -18.710938 2.921875 -18.921875 C 3.148438 -19.140625 3.414062 -19.25 3.71875 -19.25 C 4.019531 -19.25 4.28125 -19.140625 4.5 -18.921875 C 4.71875 -18.710938 4.828125 -18.453125 4.828125 -18.140625 Z M 4.828125 -18.140625 "/></g></g></g><g fill="#f04f47" fill-opacity="1"><g transform="translate(256.785441, 90.478648)"><g><path d="M 6.265625 -19.640625 L 6.265625 5.0625 C 6.265625 5.332031 6.175781 5.566406 6 5.765625 C 5.820312 5.960938 5.597656 6.070312 5.328125 6.09375 L 2.109375 6.40625 C 1.828125 6.425781 1.570312 6.34375 1.34375 6.15625 C 1.125 5.976562 1 5.75 0.96875 5.46875 C 0.9375 5.175781 1.007812 4.914062 1.1875 4.6875 C 1.375 4.46875 1.613281 4.347656 1.90625 4.328125 L 4.1875 4.125 L 4.1875 -18.703125 L 1.90625 -18.90625 C 1.613281 -18.925781 1.375 -19.046875 1.1875 -19.265625 C 1.007812 -19.492188 0.9375 -19.753906 0.96875 -20.046875 C 1 -20.328125 1.125 -20.5625 1.34375 -20.75 C 1.570312 -20.9375 1.828125 -21.015625 2.109375 -20.984375 L 5.328125 -20.671875 C 5.597656 -20.648438 5.820312 -20.539062 6 -20.34375 C 6.175781 -20.144531 6.265625 -19.910156 6.265625 -19.640625 Z M 6.265625 -19.640625 "/></g></g></g></svg>